<?xml version="1.0" encoding="UTF-8"?>
<svg version="1.1" xmlns="http://www.w3.org/2000/svg" width="512" height="512">
<path d="M0 0 C168.96 0 337.92 0 512 0 C512 168.96 512 337.92 512 512 C343.04 512 174.08 512 0 512 C0 343.04 0 174.08 0 0 Z " fill="#362619" transform="translate(0,0)"/>
<path d="M0 0 C168.96 0 337.92 0 512 0 C512 168.96 512 337.92 512 512 C343.04 512 174.08 512 0 512 C0 343.04 0 174.08 0 0 Z M23 23 C22.90838747 74.32223892 22.83793232 125.64446955 22.79573868 176.9667742 C22.79073603 183.02977017 22.78555872 189.09276598 22.78027344 195.15576172 C22.7792242 196.36276373 22.77817495 197.56976575 22.77709392 198.81334358 C22.75970224 218.3411693 22.72817136 237.86894778 22.69138882 257.3967455 C22.65394498 277.4432398 22.63175686 297.48970941 22.62364602 317.53623724 C22.6181654 329.89987974 22.60087309 342.2633887 22.56833413 354.62699008 C22.54714375 363.11225593 22.54081019 371.59745303 22.54599449 380.08274341 C22.54854922 384.97381066 22.54471205 389.86464501 22.5231781 394.75567055 C22.50356565 399.24328945 22.50282423 403.7305211 22.51640442 408.21815866 C22.51808027 409.83216864 22.51313124 411.44620382 22.50046727 413.06016499 C22.3440592 434.24449828 27.9581717 453.37871122 43 469 C59.21491009 484.61342965 78.41250634 489.65134065 100.21714783 489.48101807 C101.90476523 489.4827665 103.59238155 489.48627637 105.27999216 489.49137473 C109.87528309 489.50024525 114.47019539 489.48442134 119.06543815 489.46426249 C124.03659019 489.44688652 129.00772321 489.45284132 133.97889709 489.45587158 C142.57781413 489.45796256 151.17660917 489.44547995 159.77549553 489.42292023 C172.20781289 489.3903246 184.64007164 489.37998549 197.0724271 489.37496826 C217.24615341 489.36622745 237.41981478 489.33964487 257.59350586 489.30175781 C277.1830208 489.26500626 296.77251806 489.2367099 316.36206055 489.21972656 C318.17522958 489.21815022 318.17522958 489.21815022 320.02502828 489.21654204 C326.08950158 489.21132165 332.15397501 489.20626687 338.21844852 489.20129442 C388.47901054 489.1598702 438.73950209 489.08945491 489 489 C489.09160165 437.53334516 489.16206216 386.06669857 489.20426132 334.5999782 C489.20926401 328.52067219 489.21444131 322.44136633 489.21972656 316.36206055 C489.2207758 315.15180561 489.22182505 313.94155067 489.22290608 312.69462133 C489.24030034 293.11115466 489.27183265 273.52773506 489.30861118 253.94429629 C489.34604783 233.84243621 489.36824162 213.74060074 489.37635398 193.63870722 C489.38183608 181.23974613 489.39913652 168.84091813 489.43166587 156.44199801 C489.45284736 147.93384577 489.45919181 139.4257621 489.45400551 130.91758543 C489.45144941 126.01246551 489.45530383 121.10757778 489.4768219 116.20249939 C489.49641471 111.70321371 489.49718821 107.20431442 489.48359558 102.70501024 C489.48191785 101.08563454 489.48688368 99.46623383 489.49953273 97.84690665 C489.65270226 77.01018066 483.76603456 58.33487056 469 43 C455.23227121 29.74297521 437.9212 22.87102232 418.84486485 22.87695217 C418.15637334 22.87579833 417.46788184 22.87464448 416.75852695 22.87345567 C414.45858658 22.87081528 412.15871665 22.87528983 409.85877991 22.87974548 C408.19044381 22.87930925 406.52210777 22.87843339 404.8537721 22.87715632 C400.27474453 22.87492152 395.69574038 22.87891879 391.11671579 22.88393438 C386.17677904 22.88825323 381.23684362 22.88679143 376.29690552 22.8860321 C367.73991139 22.88550778 359.1829249 22.88864503 350.62593269 22.89426994 C338.25396103 22.90239732 325.88199304 22.90500144 313.510019 22.90625793 C293.43725992 22.9084465 273.36450491 22.91510131 253.29174805 22.92456055 C233.79305034 22.9337397 214.29435373 22.94081808 194.7956543 22.94506836 C192.99277407 22.94546244 192.99277407 22.94546244 191.15347201 22.94586449 C185.12378575 22.94716953 179.09409947 22.94843324 173.06441319 22.94967639 C123.04293932 22.96004293 73.02146986 22.97765596 23 23 Z " fill="#FE7E18" transform="translate(0,0)"/>
<path d="M0 0 C1.6874269 0.00015917 3.37485866 0.00585622 5.06225586 0.01586914 C6.39189613 0.01799156 6.39189613 0.01799156 7.74839783 0.02015686 C10.59133215 0.02577324 13.43418892 0.03832848 16.27709961 0.05102539 C18.19962452 0.05603828 20.12215065 0.06060155 22.04467773 0.06469727 C26.7680151 0.07574798 31.49129419 0.09302356 36.21459961 0.11352539 C39.06967354 5.58404339 41.37866922 10.98645814 43.35913086 16.82446289 C43.64517181 17.65214676 43.93121277 18.47983063 44.22592163 19.33259583 C44.8418363 21.11614804 45.45537253 22.90052307 46.06674194 24.68563843 C47.73159814 29.54466534 49.41586072 34.39697521 51.09741211 39.25024414 C51.44243271 40.24750015 51.78745331 41.24475616 52.14292908 42.27223206 C55.50183523 51.97038517 58.9401521 61.63925647 62.40209961 71.30102539 C63.00805812 72.99324491 63.61401513 74.68546497 64.2199707 76.37768555 C65.17055109 79.03177635 66.12132767 81.68579636 67.07254028 84.33966064 C69.8299104 92.03396174 72.57780981 99.731625 75.32397461 107.42993164 C76.21565096 109.92903881 77.10733392 112.42814362 77.99902344 114.92724609 C79.30684935 118.59271148 80.6145487 122.25822165 81.92172241 125.92391968 C83.14241303 129.34672284 84.36395505 132.76922107 85.58569336 136.19165039 C85.97371628 137.28004715 86.3617392 138.36844391 86.76152039 139.48982239 C88.6791811 144.85895444 90.61587292 150.21998501 92.59008789 155.56860352 C92.96472672 156.58621765 93.33936554 157.60383179 93.72535706 158.65228271 C94.43162495 160.56634793 95.14196116 162.47891863 95.85704041 164.38970947 C96.16847488 165.23410583 96.47990936 166.0785022 96.80078125 166.94848633 C97.07507462 167.68419861 97.34936798 168.41991089 97.63197327 169.17791748 C98.21459961 171.11352539 98.21459961 171.11352539 98.21459961 174.11352539 C86.66459961 174.11352539 75.11459961 174.11352539 63.21459961 174.11352539 C60.74943989 167.9506261 58.34970802 161.85195931 56.19897461 155.58618164 C55.93828186 154.83058456 55.67758911 154.07498749 55.40899658 153.29649353 C54.86665043 151.72155042 54.32562031 150.14615352 53.78588867 148.5703125 C52.95744011 146.15515346 52.12133672 143.74272894 51.28491211 141.33032227 C50.75580138 139.79076842 50.22713894 138.25106042 49.69897461 136.71118164 C49.44903748 135.99245377 49.19910034 135.27372589 48.94158936 134.53321838 C47.9427658 131.59734349 47.21459961 129.23816616 47.21459961 126.11352539 C27.08459961 126.44352539 6.95459961 126.77352539 -13.78540039 127.11352539 C-18.67851804 141.83246359 -18.67851804 141.83246359 -23.56835938 156.55249023 C-24.18095186 158.39318743 -24.79365576 160.23384755 -25.40649414 162.07446289 C-25.72525513 163.03586182 -26.04401611 163.99726074 -26.37243652 164.98779297 C-26.67685669 165.90117432 -26.98127686 166.81455566 -27.29492188 167.75561523 C-27.55917465 168.55059418 -27.82342743 169.34557312 -28.09568787 170.16464233 C-28.78540039 172.11352539 -28.78540039 172.11352539 -29.78540039 174.11352539 C-40.34540039 174.11352539 -50.90540039 174.11352539 -61.78540039 174.11352539 C-59.53527687 163.98796956 -59.53527687 163.98796956 -58.26757812 160.35546875 C-57.98156235 159.52812729 -57.69554657 158.70078583 -57.40086365 157.84837341 C-57.09334671 156.975522 -56.78582977 156.10267059 -56.46899414 155.20336914 C-55.97696251 153.78792564 -55.97696251 153.78792564 -55.47499084 152.34388733 C-54.39597148 149.24449325 -53.30956111 146.1477478 -52.22290039 143.05102539 C-51.45695157 140.85647693 -50.69133228 138.66181342 -49.92602539 136.46704102 C-44.41554854 120.68385669 -38.83362459 104.92601611 -33.24111938 89.17175293 C-27.96677869 74.31160377 -22.72589279 59.44013711 -17.54150391 44.54833984 C-16.79685968 42.41052141 -16.0509614 40.27313931 -15.30371094 38.13623047 C-14.26522057 35.16510551 -13.23167255 32.19230604 -12.19946289 29.21899414 C-11.89710724 28.3564653 -11.59475159 27.49393646 -11.28323364 26.60527039 C-8.38852001 18.23121547 -5.93241425 9.90729829 -4.78540039 1.11352539 C-3.78540039 0.11352539 -3.78540039 0.11352539 0 0 Z " fill="#FD7E18" transform="translate(208.785400390625,173.886474609375)"/>
<path d="M0 0 C10.56 0 21.12 0 32 0 C33 1 33 1 33.12304783 3.09083652 C33.12166514 4.48320483 33.12166514 4.48320483 33.12025452 5.90370178 C33.12162918 6.96525986 33.12300385 8.02681793 33.12442017 9.12054443 C33.11902725 10.8824411 33.11902725 10.8824411 33.11352539 12.67993164 C33.11367142 13.90902756 33.11381744 15.13812347 33.1139679 16.40446472 C33.11338892 19.78448672 33.10835964 23.16444829 33.10139394 26.54445958 C33.09515988 30.07321194 33.09455656 33.60196503 33.09336853 37.13072205 C33.09025537 43.81723119 33.08204218 50.50372406 33.07201904 57.19022602 C33.06085744 64.80074303 33.05534733 72.4112608 33.05032361 80.02178395 C33.03985956 95.68120034 33.02151426 111.3405943 33 127 C22.11 127 11.22 127 0 127 C0 85.09 0 43.18 0 0 Z " fill="#FE7E18" transform="translate(331,221)"/>
<path d="M0 0 C2.59844239 2.59844239 3.1114466 4.90532441 4.24658203 8.40576172 C4.46145264 9.0628714 4.67632324 9.71998108 4.89770508 10.39700317 C5.60724006 12.5726146 6.30777439 14.75100338 7.0078125 16.9296875 C7.49783318 18.44194206 7.9882252 19.95407634 8.47897339 21.46609497 C9.5067219 24.63742364 10.53004762 27.81013655 11.55029297 30.98388672 C12.85805965 35.05089069 14.17651614 39.11433254 15.49829292 43.17680168 C16.51312847 46.29981238 17.52234768 49.42461567 18.52987289 52.54999161 C19.01378714 54.04885147 19.49942699 55.54715535 19.98682022 57.04488754 C20.66764842 59.13995647 21.34090069 61.23731306 22.01220703 63.33544922 C22.39700226 64.52854706 22.78179749 65.7216449 23.17825317 66.95089722 C24 70 24 70 24 74 C8.82 74 -6.36 74 -22 74 C-21.30782558 69.15477908 -20.74640168 65.77939085 -19.14453125 61.3671875 C-18.77239502 60.32449707 -18.40025879 59.28180664 -18.0168457 58.20751953 C-17.61941162 57.10778809 -17.22197754 56.00805664 -16.8125 54.875 C-13.03528894 44.20492072 -9.73743489 33.49606179 -6.72802734 22.58935547 C-5.42014933 17.93766055 -4.02115514 13.31332021 -2.625 8.6875 C-2.36178955 7.81432129 -2.0985791 6.94114258 -1.82739258 6.04150391 C-1.21945341 4.0273092 -0.60991851 2.01359622 0 0 Z " fill="#392719" transform="translate(224,201)"/>
<path d="M0 0 C0.33 0 0.66 0 1 0 C1.23074219 1.01578125 1.46148437 2.0315625 1.69921875 3.078125 C7.69715252 28.72187313 20.34735561 49.88648464 42.765625 64.12109375 C53.67600573 70.78591329 65.44504291 74.67953128 78 77 C78 77.33 78 77.66 78 78 C52.26 78 26.52 78 0 78 C0 52.26 0 26.52 0 0 Z " fill="#000000" transform="translate(0,434)"/>
<path d="M0 0 C25.74 0 51.48 0 78 0 C78 25.74 78 51.48 78 78 C77.67 78 77.34 78 77 78 C76.8040625 76.97003906 76.608125 75.94007812 76.40625 74.87890625 C73.19208182 59.14738007 67.21135854 45.50370434 57 33 C56.20722656 31.96359375 56.20722656 31.96359375 55.3984375 30.90625 C42.16514335 14.47871244 20.59684688 4.01494677 0 1 C0 0.67 0 0.34 0 0 Z " fill="#000000" transform="translate(434,0)"/>
<path d="M0 0 C4.87156698 2.43578349 7.98211173 6.32998246 9.8984375 11.38671875 C10.88930881 16.92109752 10.65557331 21.79137189 7.8984375 26.76171875 C4.50733689 31.39114262 0.37258613 34.70039219 -5.3359375 35.828125 C-10.93209364 36.1272299 -15.60651756 34.74576104 -20.1015625 31.38671875 C-24.81058476 26.35051876 -26.53990744 21.48713146 -26.44921875 14.54296875 C-25.60730478 9.32121017 -22.24592324 5.44933944 -18.4765625 1.94921875 C-13.13008602 -1.56819998 -6.08564017 -1.77592102 0 0 Z " fill="#FB7D18" transform="translate(355.1015625,164.61328125)"/>
</svg>
